<svg width="182" height="55" viewBox="0 0 182 55" fill="none" xmlns="http://www.w3.org/2000/svg">
<path d="M16.944 36L16.92 27.096L12.6 34.344H10.488L6.168 27.288V36H1.8V19.2H5.712L11.616 28.896L17.376 19.2H21.288L21.336 36H16.944Z" fill="#2A2367"/>
<path d="M83.168 32.328V36H69.68V19.2H82.856V22.872H74.384V25.704H81.848V29.256H74.384V32.328H83.168ZM103.469 19.2V36H99.557L92.141 27.048V36H87.485V19.2H91.397L98.813 28.152V19.2H103.469ZM124.485 19.2V36H120.573L113.157 27.048V36H108.501V19.2H112.413L119.829 28.152V19.2H124.485ZM129.517 19.2H134.269V36H129.517V19.2ZM147.082 36.336C144.586 36.336 142.642 35.656 141.25 34.296C139.874 32.936 139.186 31.008 139.186 28.512V19.2H143.938V28.368C143.938 31.056 145.002 32.4 147.13 32.4C149.242 32.4 150.298 31.056 150.298 28.368V19.2H154.978V28.512C154.978 31.008 154.282 32.936 152.89 34.296C151.514 35.656 149.578 36.336 147.082 36.336ZM175.045 36L174.997 27.096L170.677 34.344H168.565L164.269 27.336V36H159.877V19.2H163.789L169.693 28.896L175.453 19.2H179.365L179.413 36H175.045Z" fill="#2A2367"/>
<rect x="28" y="19" width="7" height="17" fill="#6B5AF9"/>
<rect x="42" y="7" width="7" height="41" fill="#6B5AF9"/>
<rect x="56" width="7" height="55" fill="#6B5AF9"/>
</svg>
