<svg width="52" height="33" viewBox="0 0 52 33" fill="none" xmlns="http://www.w3.org/2000/svg">
<rect width="52" height="32.5" rx="5" fill="#6B5AF9"/>
<g clip-path="url(#clip0_1_758)">
<path d="M34.2093 20.4484L31.866 18.1051C31.0291 17.2682 29.6064 17.603 29.2716 18.6909C29.0206 19.4441 28.1836 19.8626 27.4304 19.6952C25.7566 19.2767 23.497 17.1008 23.0785 15.3433C22.8275 14.59 23.3296 13.7531 24.0828 13.5021C25.1708 13.1673 25.5056 11.7446 24.6687 10.9077L22.3253 8.56437C21.6558 7.97854 20.6515 7.97854 20.0657 8.56437L18.4756 10.1545C16.8855 11.8283 18.643 16.2639 22.5764 20.1973C26.5098 24.1308 30.9454 25.972 32.6192 24.2981L34.2093 22.708C34.7952 22.0385 34.7952 21.0342 34.2093 20.4484Z" fill="white"/>
</g>
<defs>
<clipPath id="clip0_1_758">
<rect width="16.7917" height="16.7917" fill="white" transform="translate(17.875 8.125)"/>
</clipPath>
</defs>
</svg>
