<svg width="14" height="14" viewBox="0 0 14 14" fill="none" xmlns="http://www.w3.org/2000/svg">
<path d="M13.5645 11.4641C14.1452 12.0451 14.1452 12.9838 13.5645 13.5648C13.2748 13.8545 12.8945 14 12.514 14C12.1337 14 11.7535 13.8545 11.4638 13.5648L7 9.10061L2.5362 13.5648C2.24652 13.8545 1.86626 14 1.48601 14C1.10548 14 0.725221 13.8545 0.435541 13.5648C-0.14518 12.9838 -0.14518 12.0451 0.435541 11.4641L4.89961 7.00017L0.435541 2.53626C-0.14518 1.95525 -0.14518 1.01656 0.435541 0.435551C1.01653 -0.145184 1.95521 -0.145184 2.5362 0.435551L7 4.89973L11.4638 0.435551C12.0448 -0.145184 12.9835 -0.145184 13.5645 0.435551C14.1452 1.01656 14.1452 1.95525 13.5645 2.53626L9.10039 7.00017L13.5645 11.4641Z" fill="#2A2367"/>
</svg>
