<svg width="114" height="37" viewBox="0 0 114 37" fill="none" xmlns="http://www.w3.org/2000/svg">
<path d="M9.653 23.9175L9.6377 18.242L6.88407 22.862H5.53785L2.78423 18.3644V23.9175H0V13.209H2.49356L6.25686 19.3894L9.92836 13.209H12.4219L12.4525 23.9175H9.653Z" fill="#2A2367"/>
<path d="M51.8651 21.577V23.9175H43.2677V13.209H51.6662V15.5496H46.2661V17.3547H51.0237V19.6188H46.2661V21.577H51.8651Z" fill="#2A2367"/>
<path d="M64.8053 13.209V23.9175H62.3117L57.5846 18.2114V23.9175H54.6168V13.209H57.1104L61.8375 18.9151V13.209H64.8053Z" fill="#2A2367"/>
<path d="M78.2011 13.209V23.9175H75.7076L70.9805 18.2114V23.9175H68.0127V13.209H70.5063L75.2333 18.9151V13.209H78.2011Z" fill="#2A2367"/>
<path d="M81.4086 13.209H84.4375V23.9175H81.4086V13.209Z" fill="#2A2367"/>
<path d="M92.6046 24.1317C91.0136 24.1317 89.7745 23.6983 88.8872 22.8314C88.0101 21.9645 87.5716 20.7356 87.5716 19.1446V13.209H90.6006V19.0528C90.6006 20.7662 91.2788 21.6229 92.6352 21.6229C93.9814 21.6229 94.6545 20.7662 94.6545 19.0528V13.209H97.6376V19.1446C97.6376 20.7356 97.194 21.9645 96.3067 22.8314C95.4296 23.6983 94.1956 24.1317 92.6046 24.1317Z" fill="#2A2367"/>
<path d="M110.429 23.9175L110.398 18.242L107.645 22.862H106.298L103.56 18.395V23.9175H100.76V13.209H103.254L107.017 19.3894L110.689 13.209H113.182L113.213 23.9175H110.429Z" fill="#2A2367"/>
<rect x="16.7002" y="13.0815" width="4.4619" height="10.836" fill="#6B5AF9"/>
<rect x="25.624" y="5.43262" width="4.4619" height="26.134" fill="#6B5AF9"/>
<rect x="34.5479" y="0.970703" width="4.4619" height="35.0578" fill="#6B5AF9"/>
</svg>
