<svg width="179" height="55" viewBox="0 0 179 55" fill="none" xmlns="http://www.w3.org/2000/svg">
<path d="M15.944 36.0002L15.92 27.0962L11.6 34.3442H9.48805L5.16805 27.2882V36.0002H0.800049V19.2002H4.71205L10.616 28.8962L16.376 19.2002H20.288L20.3361 36.0002H15.944Z" fill="#2A2367"/>
<path d="M82.1681 32.3282V36.0002H68.68V19.2002H81.856V22.8722H73.384V25.7042H80.8481V29.2562H73.384V32.3282H82.1681Z" fill="#2A2367"/>
<path d="M102.469 19.2002V36.0002H98.5571L91.1411 27.0482V36.0002H86.485V19.2002H90.397L97.813 28.1522V19.2002H102.469Z" fill="#2A2367"/>
<path d="M123.485 19.2002V36.0002H119.573L112.157 27.0482V36.0002H107.501V19.2002H111.413L118.829 28.1522V19.2002H123.485Z" fill="#2A2367"/>
<path d="M128.517 19.2002H133.269V36.0002H128.517V19.2002Z" fill="#2A2367"/>
<path d="M146.082 36.3362C143.586 36.3362 141.642 35.6562 140.25 34.2962C138.874 32.9362 138.186 31.0082 138.186 28.5122V19.2002H142.938V28.3682C142.938 31.0562 144.002 32.4002 146.13 32.4002C148.242 32.4002 149.298 31.0562 149.298 28.3682V19.2002H153.978V28.5122C153.978 31.0082 153.282 32.9362 151.89 34.2962C150.514 35.6562 148.578 36.3362 146.082 36.3362Z" fill="#2A2367"/>
<path d="M174.045 36.0002L173.997 27.0962L169.677 34.3442H167.565L163.269 27.3362V36.0002H158.877V19.2002H162.789L168.693 28.8962L174.453 19.2002H178.365L178.413 36.0002H174.045Z" fill="#2A2367"/>
<rect x="27" y="19" width="7" height="17" fill="#6B5AF9"/>
<rect x="41" y="7" width="7" height="41" fill="#6B5AF9"/>
<rect x="55" width="7" height="55" fill="#6B5AF9"/>
</svg>
