<svg width="18" height="11" viewBox="0 0 18 11" fill="none" xmlns="http://www.w3.org/2000/svg">
<path d="M17.7123 0.888593L17.1227 0.294881C16.9371 0.109465 16.6902 0.0073173 16.4264 0.0073173C16.1627 0.0073173 15.9155 0.109465 15.7299 0.294881L9.00402 7.02108L2.27036 0.287417C2.08509 0.102001 1.83792 0 1.57421 0C1.3105 0 1.06318 0.102001 0.877763 0.287417L0.288002 0.877471C-0.0960008 1.26118 -0.0960008 1.88621 0.288002 2.26992L8.30524 10.316C8.49051 10.5013 8.73739 10.6318 9.00344 10.6318H9.00651C9.27037 10.6318 9.51725 10.5011 9.70252 10.316L17.7123 2.29173C17.8979 2.10646 17.9997 1.85211 18 1.5884C18 1.32455 17.8979 1.07372 17.7123 0.888593Z" fill="#6B5AF9"/>
</svg>
