<svg width="18" height="18" viewBox="0 0 18 18" fill="none" xmlns="http://www.w3.org/2000/svg">
<g clip-path="url(#clip0_1_289)">
<path d="M9 18C13.9706 18 18 13.9706 18 9C18 4.02944 13.9706 0 9 0C4.02944 0 0 4.02944 0 9C0 13.9706 4.02944 18 9 18Z" fill="#707070"/>
<path d="M4.1182 8.80516L12.7957 5.45941C13.1984 5.31391 13.5502 5.55766 13.4197 6.16666L13.4204 6.16591L11.9429 13.1267C11.8334 13.6202 11.5402 13.7402 11.1299 13.5077L8.87994 11.8494L7.79469 12.8949C7.67469 13.0149 7.57345 13.1162 7.34095 13.1162L7.5007 10.8264L11.6707 7.05916C11.8522 6.89941 11.6302 6.80941 11.3909 6.96841L6.2377 10.2129L4.0162 9.51991C3.53395 9.36691 3.52345 9.03766 4.1182 8.80516Z" fill="white"/>
</g>
<defs>
<clipPath id="clip0_1_289">
<rect width="18" height="18" fill="white"/>
</clipPath>
</defs>
</svg>
