<svg width="157" height="55" viewBox="0 0 157 55" fill="none" xmlns="http://www.w3.org/2000/svg">
<path d="M15.144 36L15.12 27.096L10.8 34.344H8.688L4.368 27.288V36H0V19.2H3.912L9.816 28.896L15.576 19.2H19.488L19.536 36H15.144Z" fill="white"/>
<path d="M81.368 32.328V36H67.88V19.2H81.056V22.872H72.584V25.704H80.048V29.256H72.584V32.328H81.368Z" fill="white"/>
<path d="M101.669 19.2V36H97.757L90.341 27.048V36H85.685V19.2H89.597L97.013 28.152V19.2H101.669Z" fill="white"/>
<path d="M106.701 19.2H111.453V36H106.701V19.2Z" fill="white"/>
<path d="M124.266 36.336C121.77 36.336 119.826 35.656 118.434 34.296C117.058 32.936 116.37 31.008 116.37 28.512V19.2H121.122V28.368C121.122 31.056 122.186 32.4 124.314 32.4C126.426 32.4 127.482 31.056 127.482 28.368V19.2H132.162V28.512C132.162 31.008 131.466 32.936 130.074 34.296C128.698 35.656 126.762 36.336 124.266 36.336Z" fill="white"/>
<path d="M152.229 36L152.181 27.096L147.861 34.344H145.749L141.453 27.336V36H137.061V19.2H140.973L146.877 28.896L152.637 19.2H156.549L156.597 36H152.229Z" fill="white"/>
<rect x="26.2" y="19" width="7" height="17" fill="#6B5AF9"/>
<rect x="40.2" y="7" width="7" height="41" fill="#6B5AF9"/>
<rect x="54.2" width="7" height="55" fill="#6B5AF9"/>
</svg>
