<svg width="11" height="12" viewBox="0 0 11 12" fill="none" xmlns="http://www.w3.org/2000/svg">
<path d="M2.45597 4.51216V3.42416C2.45597 2.55849 2.79986 1.72828 3.41198 1.11616C4.0241 0.504041 4.85431 0.160156 5.71997 0.160156C6.58564 0.160156 7.41585 0.504041 8.02797 1.11616C8.64009 1.72828 8.98397 2.55849 8.98397 3.42416V4.51216H9.52797C9.81653 4.51216 10.0933 4.62678 10.2973 4.83082C10.5013 5.03486 10.616 5.3116 10.616 5.60016V9.95216C10.616 10.2407 10.5013 10.5174 10.2973 10.7215C10.0933 10.9255 9.81653 11.0402 9.52797 11.0402H1.91197C1.62342 11.0402 1.34668 10.9255 1.14264 10.7215C0.938603 10.5174 0.823975 10.2407 0.823975 9.95216V5.60016C0.823975 5.00176 1.31357 4.51216 1.91197 4.51216H2.45597ZM5.17597 8.17328V9.40816H6.26397V8.17328C6.47139 8.05352 6.6335 7.86868 6.72515 7.6474C6.81681 7.42613 6.83289 7.18079 6.7709 6.94945C6.70891 6.7181 6.57232 6.51367 6.38231 6.36787C6.19229 6.22207 5.95948 6.14304 5.71997 6.14304C5.48047 6.14304 5.24765 6.22207 5.05764 6.36787C4.86763 6.51367 4.73104 6.7181 4.66905 6.94945C4.60706 7.18079 4.62314 7.42613 4.71479 7.6474C4.80645 7.86868 4.96856 8.05352 5.17597 8.17328ZM4.08797 3.42416V4.51216H7.35197V3.42416C7.35197 2.99132 7.18003 2.57622 6.87397 2.27016C6.56791 1.9641 6.15281 1.79216 5.71997 1.79216C5.28714 1.79216 4.87204 1.9641 4.56598 2.27016C4.25992 2.57622 4.08797 2.99132 4.08797 3.42416Z" fill="white"/>
</svg>
