<svg width="18" height="12" viewBox="0 0 18 12" fill="none" xmlns="http://www.w3.org/2000/svg">
<path d="M0.28771 10.4273L0.877325 11.021C1.06289 11.2065 1.30977 11.3086 1.57362 11.3086C1.83733 11.3086 2.08451 11.2065 2.27007 11.021L8.99598 4.29484L15.7296 11.0285C15.9149 11.2139 16.1621 11.3159 16.4258 11.3159C16.6895 11.3159 16.9368 11.2139 17.1222 11.0285L17.712 10.4384C18.096 10.0547 18.096 9.42971 17.712 9.046L9.69476 0.999931C9.50949 0.814661 9.26261 0.684123 8.99656 0.684123H8.99349C8.72963 0.684123 8.48275 0.814808 8.29748 0.999931L0.28771 9.02419C0.102148 9.20946 0.000293732 9.46381 0 9.72751C0 9.99137 0.102148 10.2422 0.28771 10.4273Z" fill="#6B5AF9"/>
</svg>
