<svg width="22" height="20" viewBox="0 0 22 20" fill="none" xmlns="http://www.w3.org/2000/svg">
<path d="M20.6872 16.712C20.265 17.9042 18.5894 18.893 17.2528 19.1817C16.3385 19.3764 15.1441 19.5317 11.1235 17.8648C5.98064 15.7342 2.66877 10.5083 2.41065 10.1692C2.16346 9.83015 0.33252 7.40203 0.33252 4.89078C0.33252 2.37953 1.60783 1.15672 2.1219 0.631719C2.54408 0.200782 3.24189 0.00390625 3.91127 0.00390625C4.12783 0.00390625 4.32252 0.0148439 4.49752 0.0235939C5.01158 0.0454689 5.26971 0.0760944 5.60877 0.887657C6.03096 1.90484 7.05908 4.41609 7.18158 4.67422C7.30627 4.93234 7.43096 5.28234 7.25596 5.6214C7.0919 5.9714 6.94752 6.12672 6.6894 6.42422C6.43127 6.72172 6.18627 6.94922 5.92815 7.26859C5.6919 7.5464 5.42502 7.8439 5.72252 8.35797C6.02002 8.86109 7.04815 10.5389 8.5619 11.8864C10.5153 13.6255 12.0991 14.1811 12.6656 14.4173C13.0878 14.5923 13.591 14.5508 13.8994 14.2227C14.291 13.8005 14.7744 13.1005 15.2666 12.4114C15.6166 11.917 16.0585 11.8558 16.5222 12.0308C16.9947 12.1948 19.495 13.4308 20.0091 13.6867C20.5231 13.9448 20.8622 14.0673 20.9869 14.2839C21.1094 14.5005 21.1094 15.5176 20.6872 16.712Z" fill="#2A2367"/>
</svg>
