<svg width="13" height="13" viewBox="0 0 13 13" fill="none" xmlns="http://www.w3.org/2000/svg">
<path d="M12.1751 10.2896C12.6964 10.8111 12.6964 11.6536 12.1751 12.1751C11.9151 12.4351 11.5738 12.5657 11.2322 12.5657C10.8909 12.5657 10.5496 12.4351 10.2896 12.1751L6.28302 8.16827L2.27643 12.1751C2.01642 12.4351 1.67511 12.5657 1.3338 12.5657C0.992249 12.5657 0.65094 12.4351 0.39093 12.1751C-0.13031 11.6536 -0.13031 10.8111 0.39093 10.2896L4.39777 6.28302L0.39093 2.27643C-0.13031 1.75494 -0.13031 0.912414 0.39093 0.39093C0.912415 -0.13031 1.75494 -0.13031 2.27643 0.39093L6.28302 4.39776L10.2896 0.39093C10.8111 -0.13031 11.6536 -0.13031 12.1751 0.39093C12.6964 0.912414 12.6964 1.75494 12.1751 2.27643L8.16827 6.28302L12.1751 10.2896Z" fill="#363636"/>
</svg>
