<svg width="20" height="20" viewBox="0 0 20 20" fill="none" xmlns="http://www.w3.org/2000/svg">
<path d="M19.3778 16.3773C20.2074 17.2073 20.2074 18.5483 19.3778 19.3783C18.964 19.7921 18.4207 20 17.8771 20C17.3339 20 16.7907 19.7921 16.3769 19.3783L10 13.0009L3.62314 19.3783C3.20931 19.7921 2.66609 20 2.12287 20C1.57925 20 1.03603 19.7921 0.622201 19.3783C-0.2074 18.5483 -0.2074 17.2073 0.622201 16.3773L6.99945 10.0002L0.622201 3.62323C-0.2074 2.79322 -0.2074 1.45223 0.622201 0.622216C1.45219 -0.207405 2.79315 -0.207405 3.62314 0.622216L10 6.99962L16.3769 0.622216C17.2068 -0.207405 18.5478 -0.207405 19.3778 0.622216C20.2074 1.45223 20.2074 2.79322 19.3778 3.62323L13.0006 10.0002L19.3778 16.3773Z" fill="#2A2367"/>
</svg>
